2014014_C4_04_grf
inDegrees=no
nColumns=19
nRows=65
DataType=double
version=3
OpenSimVersion=4.5-2023-11-26-efcdfd3eb
endheader
time	ground_force_1_vx	ground_force_1_vy	ground_force_1_vz	ground_force_1_px	ground_force_1_py	ground_force_1_pz	ground_force_1_mx	ground_force_1_my	ground_force_1_mz	ground_force_2_vx	ground_force_2_vy	ground_force_2_vz	ground_force_2_px	ground_force_2_py	ground_force_2_pz	ground_force_2_mx	ground_force_2_my	ground_force_2_mz
0.445	-0.66189529	791.53209925	0	0.3008039	-0.002	-0.06861266805516421	0	-4.22849454	0	0	0	0	0	0	0.1088863857955963	0	0	0
0.446	-0.24883525	792.96097159	0	0.30108822	-0.002	-0.06861266805516421	0	-4.23809469	0	0	0	0	0	0	0.1088863857955963	0	0	0
0.447	0.16484767	794.39502209	0	0.3013726	-0.002	-0.06861266805516421	0	-4.24757311	0	0	0	0	0	0	0.1088863857955963	0	0	0
0.448	0.57913992	795.83264887	0	0.30165708	-0.002	-0.06861266805516421	0	-4.25693478	0	0	0	0	0	0	0.1088863857955963	0	0	0
0.449	0.99434151	797.27377743	0	0.30194171	-0.002	-0.06861266805516421	0	-4.26612556	0	0	0	0	0	0	0.1088863857955963	0	0	0
0.45	1.41039561	798.71714115	0	0.30222651	-0.002	-0.06861266805516421	0	-4.27516015	0	0	0	0	0	0	0.1088863857955963	0	0	0
0.451	1.82767247	800.16247928	0	0.30251154	-0.002	-0.06861266805516421	0	-4.28397299	0	0	0	0	0	0	0.1088863857955963	0	0	0
0.452	2.24605296	801.60878599	0	0.3027968	-0.002	-0.06861266805516421	0	-4.29258632	0	0	0	0	0	0	0.1088863857955963	0	0	0
0.453	2.66597793	803.0558005	0	0.30308237	-0.002	-0.06861266805516421	0	-4.30091999	0	0	0	0	0	0	0.1088863857955963	0	0	0
0.454	3.08727939	804.5028150099999	0	0.30336824	-0.002	-0.06861266805516421	0	-4.3090016	0	0	0	0	0	0	0.1088863857955963	0	0	0
0.455	3.51048855	805.9493452299999	0	0.30365453	-0.002	-0.06861266805516421	0	-4.31672773	0	0	0	0	0	0	0.1088863857955963	0	0	0
0.456	3.93538224	807.3951304	0	0.30394116	-0.002	-0.06861266805516421	0	-4.32413452	0	0	0	0	0	0	0.1088863857955963	0	0	0
0.457	4.36259084	808.8395372	0	0.30422827	-0.002	-0.06861266805516421	0	-4.33109345	0	0	0	0	0	0	0.1088863857955963	0	0	0
0.458	4.79182042	810.28260291	0	0.30451577	-0.002	-0.06861266805516421	0	-4.33765229	0	0	0	0	0	0	0.1088863857955963	0	0	0
0.459	5.22378925	811.72373146	0	0.30480377	-0.002	-0.06861266805516421	0	-4.343656	0	0	0	0	0	0	0.1088863857955963	0	0	0
0.46	5.65812225	813.16299736	0	0.30509217	-0.002	-0.06861266805516421	0	-4.34916937	0	0	0	0	0	0	0.1088863857955963	0	0	0
0.461	6.09562709	814.59976733	0	0.30538106	-0.002	-0.06861266805516421	0	-4.35400996	0	0	0	0	0	0	0.1088863857955963	0	0	0
0.462	6.53584022	816.03430212	0	0.30567034	-0.002	-0.06861266805516421	0	-4.3582636	0	0	0	0	0	0	0.1088863857955963	0	0	0
0.463	6.97964756	817.46589392	0	0.30596009	-0.002	-0.06861266805516421	0	-4.36172201	0	0	0	0	0	0	0.1088863857955963	0	0	0
0.464	7.4264938	818.8950270399999	0	0.30625018	-0.002	-0.06861266805516421	0	-4.36449265	0	0	0	0	0	0	0.1088863857955963	0	0	0
0.465	7.87734543	820.32091916	0	0.30654068	-0.002	-0.06861266805516421	0	-4.3663343	0	0	0	0	0	0	0.1088863857955963	0	0	0
0.466	8.33157171	821.74427807	0	0.30683146	-0.002	-0.06861266805516421	0	-4.36737218	0	0	0	0	0	0	0.1088863857955963	0	0	0
0.467	8.790244810000001	823.16447049	0	0.30712257	-0.002	-0.06861266805516421	0	-4.36732408	0	0	0	0	0	0	0.1088863857955963	0	0	0
0.468	9.252665560000001	824.58235323	0	0.30741386	-0.002	-0.06861266805516421	0	-4.36634008	0	0	0	0	0	0	0.1088863857955963	0	0	0
0.469	9.72000929	825.9973675	0	0.30770535	-0.002	-0.06861266805516421	0	-4.36409795	0	0	0	0	0	0	0.1088863857955963	0	0	0
0.47	10.19147504	827.41037011	0	0.30799692	-0.002	-0.06861266805516421	0	-4.36077666	0	0	0	0	0	0	0.1088863857955963	0	0	0
0.471	10.66830941	828.82098854	0	0.30828856	-0.002	-0.06861266805516421	0	-4.35601527	0	0	0	0	0	0	0.1088863857955963	0	0	0
0.472	11.14960108	830.22989333	0	0.30858019	-0.002	-0.06861266805516421	0	-4.35002821	0	0	0	0	0	0	0.1088863857955963	0	0	0
0.473	11.63664926	831.6366747	0	0.30887177	-0.002	-0.06861266805516421	0	-4.34241489	0	0	0	0	0	0	0.1088863857955963	0	0	0
0.474	12.12843694	833.04189146	0	0.30916327	-0.002	-0.06861266805516421	0	-4.33342655	0	0	0	0	0	0	0.1088863857955963	0	0	0
0.475	12.62629637	834.44528282	0	0.30945462	-0.002	-0.06861266805516421	0	-4.32262427	0	0	0	0	0	0	0.1088863857955963	0	0	0
0.476	13.12912069	835.84725857	0	0.30974584	-0.002	-0.06861266805516421	0	-4.31029958	0	0	0	0	0	0	0.1088863857955963	0	0	0
0.477	13.63827242	837.24752069	0	0.31003684	-0.002	-0.06861266805516421	0	-4.29598818	0	0	0	0	0	0	0.1088863857955963	0	0	0
0.478	14.15257342	838.64666522	0	0.31032764	-0.002	-0.06861266805516421	0	-4.28002348	0	0	0	0	0	0	0.1088863857955963	0	0	0
0.479	14.67339043	840.04469216	0	0.31061811	-0.002	-0.06861266805516421	0	-4.26192151	0	0	0	0	0	0	0.1088863857955963	0	0	0
0.48	15.19946754	841.44204855	0	0.31090829	-0.002	-0.06861266805516421	0	-4.24205735	0	0	0	0	0	0	0.1088863857955963	0	0	0
0.481	15.73214401	842.83892065	0	0.31119803	-0.002	-0.06861266805516421	0	-4.21993906	0	0	0	0	0	0	0.1088863857955963	0	0	0
0.482	16.27009548	844.23571825	0	0.31148735	-0.002	-0.06861266805516421	0	-4.19598547	0	0	0	0	0	0	0.1088863857955963	0	0	0
0.483	16.81460254	845.6328138699999	0	0.31177612	-0.002	-0.06861266805516421	0	-4.16970608	0	0	0	0	0	0	0.1088863857955963	0	0	0
0.484	17.36430079	847.0303565299999	0	0.31206441	-0.002	-0.06861266805516421	0	-4.14155294	0	0	0	0	0	0	0.1088863857955963	0	0	0
0.485	17.92038511	848.42901677	0	0.31235204	-0.002	-0.06861266805516421	0	-4.1110528	0	0	0	0	0	0	0.1088863857955963	0	0	0
0.486	18.48147251	849.8287946	0	0.31263913	-0.002	-0.06861266805516421	0	-4.07868121	0	0	0	0	0	0	0.1088863857955963	0	0	0
0.487	19.04864702	851.23054683	0	0.31292549	-0.002	-0.06861266805516421	0	-4.04399701	0	0	0	0	0	0	0.1088863857955963	0	0	0
0.488	19.62053217	852.6341617099999	0	0.31321124	-0.002	-0.06861266805516421	0	-4.00749438	0	0	0	0	0	0	0.1088863857955963	0	0	0
0.489	20.19807417	854.04057056	0	0.31349623	-0.002	-0.06861266805516421	0	-3.96877559	0	0	0	0	0	0	0.1088863857955963	0	0	0
0.49	20.77994309	855.44958711	0	0.31378056	-0.002	-0.06861266805516421	0	-3.92834482	0	0	0	0	0	0	0.1088863857955963	0	0	0
0.491	21.36695106	856.86225444	0	0.31406405	-0.002	-0.06861266805516421	0	-3.88586558	0	0	0	0	0	0	0.1088863857955963	0	0	0
0.492	21.95784263	858.27820003	0	0.31434687	-0.002	-0.06861266805516421	0	-3.84183403	0	0	0	0	0	0	0.1088863857955963	0	0	0
0.493	22.55328093	859.6988767399999	0	0.31462877	-0.002	-0.06861266805516421	0	-3.7959881	0	0	0	0	0	0	0.1088863857955963	0	0	0
0.494	23.15210365	861.12365127	0	0.31490993	-0.002	-0.06861266805516421	0	-3.74880056	0	0	0	0	0	0	0.1088863857955963	0	0	0
0.495	23.75483327	862.5540509800001	0	0.31519013	-0.002	-0.06861266805516421	0	-3.70008885	0	0	0	0	0	0	0.1088863857955963	0	0	0
0.496	24.36043508	863.98936808	0	0.31546953	-0.002	-0.06861266805516421	0	-3.65028311	0	0	0	0	0	0	0.1088863857955963	0	0	0
0.497	24.96932726	865.43135345	0	0.31574789	-0.002	-0.06861266805516421	0	-3.59927441	0	0	0	0	0	0	0.1088863857955963	0	0	0
0.498	25.58062971	866.87915027	0	0.31602542	-0.002	-0.06861266805516421	0	-3.54743726	0	0	0	0	0	0	0.1088863857955963	0	0	0
0.499	26.19468048	868.3346957	0	0.31630185	-0.002	-0.06861266805516421	0	-3.49473668	0	0	0	0	0	0	0.1088863857955963	0	0	0
0.5	26.81073733	869.79702115	0	0.31657737	-0.002	-0.06861266805516421	0	-3.44148651	0	0	0	0	0	0	0.1088863857955963	0	0	0
0.501	27.42907498	871.26839906	0	0.31685173	-0.002	-0.06861266805516421	0	-3.38773056	0	0	0	0	0	0	0.1088863857955963	0	0	0
0.502	28.04906294	872.74752557	0	0.31712514	-0.002	-0.06861266805516421	0	-3.33371484	0	0	0	0	0	0	0.1088863857955963	0	0	0
0.503	28.6709182	874.23678488	0	0.31739733	-0.002	-0.06861266805516421	0	-3.27955439	0	0	0	0	0	0	0.1088863857955963	0	0	0
0.504	29.2941276	875.73461235	0	0.31766855	-0.002	-0.06861266805516421	0	-3.22541872	0	0	0	0	0	0	0.1088863857955963	0	0	0
0.505	29.91889417	877.24354118	0	0.31793853	-0.002	-0.06861266805516421	0	-3.17148504	0	0	0	0	0	0	0.1088863857955963	0	0	0
0.506	30.54481745	878.76178324	0	0.31820751	-0.002	-0.06861266805516421	0	-3.11784686	0	0	0	0	0	0	0.1088863857955963	0	0	0
0.507	31.17211442	880.29205799	0	0.31847522	-0.002	-0.06861266805516421	0	-3.0647424	0	0	0	0	0	0	0.1088863857955963	0	0	0
0.508	31.80047497	881.83216751	0	0.31874194	-0.002	-0.06861266805516421	0	-3.01219476	0	0	0	0	0	0	0.1088863857955963	0	0	0
0.509	32.43015148	883.38509202	0	0.31900737	-0.002	-0.06861266805516421	0	-2.96050294	0	0	0	0	0	0	0.1088863857955963	0	0	0
